<?xml version="1.0" encoding="UTF-8"?>
<svg id="LOGO" xmlns="http://www.w3.org/2000/svg" version="1.1" viewBox="0 165 2000 835">
  <!-- Generator: Adobe Illustrator 30.5.1, SVG Export Plug-In . SVG Version: 2.1.4 Build 3)  -->
  <defs>
    <style>
      .st0 {
        fill: #cd8a93;
      }
    </style>
  </defs>
  <g id="FINAL">
    <g id="primary_x5F_horizontal-monotone_x5F_white">
      <path class="st0" d="M413.8,793.9c3.6,34.8,19.8,63.9,52.9,63.9h95.7c51.8,0,79.1-39.5,79.1-86.6s0-1.2,0-1.7c-81.6,12.3-158.3,20.6-227.6,24.5Z"/>
      <path class="st0" d="M438.9,252.6c15.9,4.8,35.6-6.4,52.4-1.4,11.2,3.4,19.2,10.8,30.4,14.2,21.5,6.5,37.1-8,42.9-27.3,10.8-35.9-6.1-78.2-45.4-90-44.9-13.5-86-5.7-100.4,42.2-5.8,19.4-3.1,54.3,20,62.3Z"/>
      <path class="st0" d="M699.7,672.5c13.6-2.8,27.4-5.7,41.3-8.8-3.6-.8-7.2-1.3-10.7-1.3-11,0-21.8,3.3-30.6,10.1Z"/>
      <path class="st0" d="M1054.7,683.1c-26.9,7-53.7,13.8-80.3,20.3,19.1,13.4,34.2,33.9,34.2,55.3,0,36.6-32.2,54.9-65.4,54.9-57.7,0-87.2-38.4-116.9-77.1-45.9,9.4-91,17.8-134.8,25.1,3.7,6.6,7.8,12.8,10.5,16.4,51.8,72.2,143.6,79.9,225.6,79.9h56.6c124,0,186.5-84.7,186.5-167.5s-1.3-25.7-4.3-38c-36.7,10.6-73.9,20.9-111.7,30.8Z"/>
      <path class="st0" d="M1142.3,452.6c-35.1-16.4-47.9-22.1-74.2-50.1-5.9-5.8-29.3-28.9-34.2-32.7-35.1-32.7-96.7-41.4-142.6-41.4s-20.9.6-31.2,1.7c-30.5,3.4-60,11.8-85.6,25.4-50,26.6-85.4,73-85.4,140.3s5.9,62.6,24.4,85.7c22.5,28.8,60,52.6,96.6,66.7,73.9-16.9,151.6-36,232.6-57.4,23.1-6.1,45.9-12.2,68.4-18.4-21.4-17.3-45.4-31.1-64.6-38.1l-174.8-63.5c-27.3-9.6-57.6-30.8-57.6-62.6s26.4-62.6,60.5-62.6c100.6,0,118.2,154,215.8,154s53.7-16.4,55.7-35.6c0-4.8-1-9.6-3.9-11.5Z"/>
      <path class="st0" d="M1748.7,574.8c-1.9,0-2.9,1.9-3.9,3.9-5.9,24.1-7.8,38.5-16.6,59.7-34.2,82.8-108.4,155.9-205.1,155.9s-96.7-44.3-96.7-95.3,4.9-37.5,14.6-55.8c24.4-46.2,117.2-87.4,167-106.8,38.6-15.1,65-32.2,83.2-56.8,5.8-7.8,8.9-18.6,9.7-30.7-7,3.6-14.1,7.3-21.4,10.9-57.2,28.6-121.8,57-192.3,84.6-21.9,16.7-51.1,34.5-81.5,66.2-1.3-11.9-2.6-23.3-3.8-34.2-61,21.9-125.4,43.1-192.2,63.2,1.2,40,10.9,77.4,28.2,111.5,45.9,91.4,123.1,106.8,219.7,106.8s104.5-9.6,150.4-35.6c87.9-49.1,143.5-143.4,143.5-242.6s-1.9-4.8-2.9-4.8Z"/>
      <path class="st0" d="M1668.1,365c-48.4-41.1-87.1-41.3-137.2-41.3-144.5,0-252.9,80.8-302.7,207.9-1.1,2.9-2.2,5.8-3.2,8.7,61.6-18.1,120.5-36.4,175.8-54.7.7-4.1,1.5-8.2,2.5-12.3,16.1-65.9,32.4-117.2,106.2-124.6,39.8-4,68.4,31.8,68.4,67.4s-.1,4.4-.3,6.6c29.6-11.5,57.3-22.8,82.9-33.9,7.1-3.1,14.1-6.2,20.9-9.2-3.9-5.5-8.3-10.4-13.2-14.6Z"/>
      <path class="st0" d="M1907,233.3c-.2-1.1-.8-1.9-1.2-3.1,0,0,0-.2-.1-.2-.4-1.6-1.3-3.3-1.9-5-.4-1-.7-1.9-1.1-2.9-5.2-10.6-14.4-20-28.3-28-7.1-4-15.7-7.7-25.3-11.2-41.2-15.2-101.9-22.2-176.3-22.2s-25.7.2-39.1.6c-.5,0-1.2,0-1.7,0-6.1.2-11.7.4-17.8.6-134.6,5.1-310.8,28.9-516.8,76.5-49.7,11.1-99.5,23.1-148.8,36.2-123.5,32.5-246.6,71-359.4,112.3-2.2-3.3-4.5-6.5-7-9.7-12.2-16.1-27-31.7-44.3-47.1-2.9-2.9-7.8-2.9-19.5-2.9h-104.5c-1.9,0-6.8.9-6.8,5.8,0,9.6,1.9,8.7,5.9,9.6,44.4,8.6,62.4,40.2,69.3,73.1.8,3.9,1.5,7.8,2,11.6-44.3,18-86.3,36.4-125,54.8-5.7,2.7-11.6,5.4-17.1,8.2-63.4,30.6-116.4,60.8-157,89.5-40.7,28.8-68.8,56.3-82.7,81.3-.6,1.1-1.1,2.2-1.7,3.3-7.9,14.3-10.8,27.7-8.8,39.8.3,2.5.7,4.9,1.4,7.3,15.2,57.9,125.6,73,236.6,73s47.3-.7,70.1-1.8c179.7-8.7,411.2-48.2,651.8-111.2,240.6-63,461.7-142,622.6-222.5,78.6-39.3,138.7-77,178.6-111.8,36.1-31.6,54.7-60.3,55.5-85.8.6-6.3.1-12.5-1.4-18.4ZM1665,399.4c-150.6,65.1-370.6,137.2-619.2,202.8-343.5,90.4-621.3,140.1-783,143.4-3.6,0-7.1,0-10.5,0-25,0-47-1.2-65.9-3.5-29.9-3.7-51.8-10.5-64.9-19.8-4.5-3.6-7.8-7.7-10-12.2-.4-1.1-1.1-2.2-1.3-3.4-7.7-29.2,24.3-69.7,90.3-115.9,35.2-24.4,79.6-50.1,132.6-76.6,46.2-23.1,97.5-46.1,152.7-68.7.2,4.2.3,8.4.3,12.4v1.4c-3.3,111.9-54.5,161.2-69.2,262,50.3-6.4,106.1-15.1,167.1-26.3,13.9-2.5,28.1-5.2,42.4-7.9-1-6.8-1.6-13.7-1.6-20.9,0-32.7,1.9-66.4,1.9-100.1v-51c0-39.4-7.5-72.6-22.5-102.7-1.7-3.5-3.6-6.9-5.5-10.3,108.7-39.4,228.6-76.5,353.8-109.3,6.9-1.8,13.8-3.6,20.6-5.3,150.2-37.8,293-66.6,421.1-85,74.1-10.4,143.6-17.3,206.6-20.3,24.4-1.2,47.4-1.8,69-1.8,55,0,101,3.8,137.3,11.4,49,10.3,77.9,27.3,83.7,49.3.2.8.4,1.5.5,2.3-2.5,26.3-41.5,76-226.4,155.9Z"/>
    </g>
  </g>
</svg>